<!DOCTYPE svg PUBLIC "-//W3C//DTD SVG 1.1//EN" "http://www.w3.org/Graphics/SVG/1.1/DTD/svg11.dtd">
<!-- Uploaded to: SVG Repo, www.svgrepo.com, Transformed by: SVG Repo Mixer Tools -->
<svg fill="#022834" height="800px" width="800px" version="1.1" id="Layer_1" xmlns="http://www.w3.org/2000/svg" xmlns:xlink="http://www.w3.org/1999/xlink" viewBox="0 0 511.999 511.999" xml:space="preserve" stroke="#022834">
<g id="SVGRepo_bgCarrier" stroke-width="0"/>
<g id="SVGRepo_tracerCarrier" stroke-linecap="round" stroke-linejoin="round"/>
<g id="SVGRepo_iconCarrier"> <g> <g> <path d="M398.214,418.863c-19.749,0-38.398,8.676-51.182,23.266c-6.288-2.274-12.95-3.449-19.739-3.449 c-11.354,0-21.947,3.287-30.906,8.941v-88.013h88.311c7.78,0,14.088-6.307,14.088-14.089V161.391l31.334,28.168 c2.692,2.419,6.059,3.611,9.415,3.611c3.856,0,7.699-1.575,10.48-4.669c5.201-5.786,4.728-14.694-1.058-19.897L265.419,3.609 c-0.179-0.161-0.368-0.301-0.552-0.451c-0.148-0.121-0.293-0.249-0.445-0.363c-0.193-0.145-0.396-0.272-0.595-0.404 c-0.168-0.113-0.332-0.234-0.503-0.338c-0.194-0.118-0.396-0.218-0.593-0.327c-0.185-0.1-0.366-0.21-0.554-0.302 c-0.2-0.097-0.406-0.177-0.609-0.265c-0.192-0.083-0.382-0.173-0.576-0.248c-0.211-0.08-0.428-0.142-0.642-0.211 c-0.192-0.062-0.382-0.134-0.576-0.187c-0.23-0.063-0.462-0.108-0.695-0.159c-0.183-0.041-0.365-0.092-0.548-0.125 c-0.275-0.051-0.554-0.079-0.83-0.113c-0.144-0.017-0.286-0.045-0.43-0.058c-0.844-0.076-1.693-0.076-2.539,0 c-0.144,0.013-0.286,0.041-0.43,0.058c-0.278,0.034-0.555,0.063-0.83,0.113c-0.185,0.034-0.366,0.085-0.548,0.125 c-0.232,0.052-0.465,0.096-0.695,0.159c-0.194,0.054-0.385,0.125-0.576,0.187c-0.214,0.069-0.431,0.131-0.642,0.211 c-0.194,0.073-0.385,0.165-0.576,0.248c-0.203,0.087-0.41,0.168-0.609,0.265c-0.187,0.092-0.369,0.2-0.554,0.302 c-0.199,0.108-0.399,0.208-0.593,0.327c-0.172,0.104-0.335,0.225-0.503,0.338c-0.199,0.134-0.402,0.261-0.595,0.404 c-0.152,0.114-0.296,0.242-0.445,0.363c-0.185,0.149-0.373,0.29-0.552,0.451L63.041,168.604c-5.786,5.201-6.26,14.11-1.058,19.897 c5.2,5.786,14.107,6.258,19.896,1.058l31.334-28.168v184.128c0,7.781,6.309,14.089,14.089,14.089h88.311v72.908 c-11.375-8.566-25.511-13.652-40.816-13.652c-19.749,0-38.397,8.673-51.181,23.266c-6.286-2.274-12.95-3.449-19.739-3.449 c-32.027,0-58.084,26.057-58.084,58.084c0,0.414,0.011,0.827,0.025,1.238l0.008,0.263c0.193,7.64,6.441,13.733,14.084,13.733 h167.65c0.386,0,0.768-0.02,1.147-0.051c0.33,0.023,0.658,0.051,0.993,0.051h52.598c0.172,0,0.34-0.02,0.51-0.025 c0.173,0.007,0.344,0.025,0.518,0.025h167.651c6.672,0,12.429-4.68,13.791-11.212c0.954-4.569,1.437-9.256,1.437-13.932 C466.205,449.365,435.705,418.863,398.214,418.863z M76.918,483.824v-0.001c4.834-10.028,15.103-16.965,26.96-16.965 c5.864,0,11.544,1.702,16.426,4.921c3.245,2.139,7.227,2.84,11.006,1.947c3.781-0.896,7.022-3.314,8.96-6.681 c7.102-12.339,20.332-20.003,34.528-20.003c20.934,0,38.147,16.238,39.701,36.782H76.918z M268.21,483.822h-24.421V360.619h24.421 V483.822z M141.391,331.43V137.821l114.61-104.655l114.61,104.655V331.43H141.391z M300.335,483.822L300.335,483.822 c4.834-10.028,15.101-16.965,26.958-16.965c5.864,0,11.544,1.702,16.429,4.921c3.243,2.137,7.225,2.842,11.006,1.946 c3.781-0.896,7.022-3.314,8.959-6.681c7.101-12.337,20.331-20.003,34.528-20.003c20.934,0,38.147,16.238,39.701,36.782H300.335z"/> </g> </g> <g> <g> <path d="M256,106.445c-36.831,0-66.796,29.965-66.796,66.798S219.168,240.04,256,240.04c36.833,0,66.796-29.965,66.796-66.798 S292.831,106.445,256,106.445z M256,211.864c-21.295,0-38.619-17.325-38.619-38.621s17.325-38.621,38.619-38.621 s38.619,17.325,38.619,38.621S277.294,211.864,256,211.864z"/> </g> </g> <g> <g> <path d="M270.088,268.269h-70.442c-7.78,0-14.089,6.307-14.089,14.088s6.309,14.088,14.089,14.088h70.442 c7.78,0,14.089-6.307,14.089-14.088S277.869,268.269,270.088,268.269z"/> </g> </g> <g> <g> <path d="M326.162,279.612c-0.17-0.902-0.452-1.789-0.804-2.649c-0.352-0.845-0.789-1.662-1.296-2.423 c-0.506-0.775-1.097-1.493-1.747-2.141c-0.648-0.648-1.367-1.24-2.141-1.761c-0.761-0.507-1.578-0.93-2.437-1.282 c-0.845-0.352-1.731-0.634-2.633-0.803c-1.817-0.38-3.677-0.366-5.495,0c-0.902,0.169-1.789,0.451-2.649,0.803 c-0.847,0.352-1.662,0.775-2.423,1.282c-0.776,0.521-1.495,1.113-2.143,1.761c-0.648,0.648-1.24,1.367-1.761,2.141 c-0.507,0.761-0.93,1.578-1.282,2.423c-0.352,0.859-0.634,1.747-0.817,2.649c-0.183,0.902-0.266,1.832-0.266,2.747 c0,3.705,1.506,7.34,4.128,9.961c0.648,0.648,1.367,1.24,2.143,1.747c0.761,0.507,1.576,0.944,2.423,1.296 c0.859,0.352,1.747,0.634,2.649,0.803c0.902,0.183,1.832,0.282,2.747,0.282c0.914,0,1.846-0.099,2.747-0.282 c0.902-0.169,1.789-0.451,2.633-0.803c0.859-0.352,1.677-0.789,2.437-1.296c0.775-0.507,1.493-1.099,2.141-1.747 c0.649-0.648,1.241-1.367,1.747-2.141c0.507-0.761,0.944-1.578,1.296-2.437c0.352-0.845,0.634-1.733,0.803-2.635 c0.183-0.902,0.282-1.832,0.282-2.747C326.443,281.443,326.345,280.513,326.162,279.612z"/> </g> </g> </g>
</svg>